PathFileType	4	(X/Y/Z)	Patient4_TMGait_0pt3_02_right_09.trc.trc
DataRate	CameraRate	NumFrames	NumMarkers	Units	OrigDataRate	OrigDataStartFrame	OrigNumFrames
51.094890510949	51.094890510949	4	33	mm	51.094890510949	36	       141
Frame#	Time	Sacral			L.Shoulder			Chest			R.Shoulder			Neck			R.ASIS			L.ASIS			R.Thigh.Superior			R.Thigh.Lateral			R.Thigh.Inferior			R.Patella			L.Thigh.Superior			L.Thigh.Lateral			L.Thigh.Inferior			L.Patella			L.Shank.Superior			L.Shank.Lateral			L.Shank.Inferior			R.Shank.Superior			R.Shank.Lateral			R.Shank.Inferior			R.Heel			R.Midfoot.Superior			R.Midfoot.Lateral			R.Toe			L.Heel			L.Midfoot.Lateral			L.Midfoot.Superior			L.Toe			L.Elbow			L.Wrist			R.Elbow			R.Wrist			
		X1	Y1	Z1	X2	Y2	Z2	X3	Y3	Z3	X4	Y4	Z4	X5	Y5	Z5	X6	Y6	Z6	X7	Y7	Z7	X8	Y8	Z8	X9	Y9	Z9	X10	Y10	Z10	X11	Y11	Z11	X12	Y12	Z12	X13	Y13	Z13	X14	Y14	Z14	X15	Y15	Z15	X16	Y16	Z16	X17	Y17	Z17	X18	Y18	Z18	X19	Y19	Z19	X20	Y20	Z20	X21	Y21	Z21	X22	Y22	Z22	X23	Y23	Z23	X24	Y24	Z24	X25	Y25	Z25	X26	Y26	Z26	X27	Y27	Z27	X28	Y28	Z28	X29	Y29	Z29	X30	Y30	Z30	X31	Y31	Z31	X32	Y32	Z32	X33	Y33	Z33	

36	17.215000000000	722.448495843834	1003.428894580251	466.019219109672	945.179227207665	1433.688444194591	335.191369517997	1000.309051066723	1361.605374720505	516.766467726516	874.335053240396	1434.632248712356	663.767770806922	887.159975593383	1493.578509951357	483.209701524944	927.870012738294	940.291545301512	626.468887986061	962.495961372216	958.508825282022	354.138642490989	991.935754783325	748.247086179119	594.847876783793	916.727017024361	631.043281590412	645.051001281507	1007.320527587028	587.192445811011	572.593839533874	1017.716231378377	496.841723394252	580.096936734395	962.568549564183	728.934084290992	374.482761990416	853.112162990364	630.545021163359	303.032576998451	914.276257266444	537.048018749068	367.663659338762	898.396019543435	463.563710358700	370.394409923909	848.830759904701	403.926545867795	360.191077663171	728.545709086943	321.164551585054	308.061749184846	749.141596009687	195.791432410092	371.717684462664	987.672032157653	407.151397586926	583.217893964259	913.108562561063	302.985779455780	640.689890611479	959.096559381717	208.145721992115	580.525188810547	826.534707042266	44.351544897370	544.738857978181	996.888106336860	97.338721851810	588.488716793898	906.516770117848	37.796385245961	623.077051123191	1114.916832421585	42.853302084646	622.528609734574	588.015571065705	65.533284297846	412.288565362998	659.133276406836	48.903757870633	331.850570923084	751.088039879322	100.213012650327	354.536838369609	869.119992198494	37.550719361322	324.769729606067	1063.772069858039	1120.230523520810	192.507812947178	1319.048921500296	1080.734196075367	220.899858099290	727.694177135477	1113.363953438203	742.655041560231	728.860526608188	853.201060294214	771.635212304492	
37	17.234571428571	723.724580941879	1004.687768203684	472.148505272191	945.696536788542	1434.768310930390	339.835170869127	1002.418314855415	1362.232348203816	520.779983563011	878.040540131067	1435.173461288346	669.005995557888	889.124859523569	1494.499377486981	488.226789217740	930.292977577752	940.604874487658	630.365004984541	962.543316612577	959.544461850494	357.905290592095	992.065195306252	747.529093852352	598.806539650495	915.145005493472	631.120090541153	648.485711656223	1005.312970677502	586.436003092009	576.106192031618	1014.570928389428	496.186273922619	583.046881969613	964.341614350785	730.244632635065	377.184418308356	855.899134297705	631.109899696927	305.782767611056	919.058506295828	537.605499771175	369.241934347312	903.512119694925	463.073005869507	370.911331462953	851.943594376370	404.299665802422	361.103094417471	729.342124885486	324.739664509282	309.474344389083	748.169441098376	198.327007870111	371.716016275634	984.011824520923	406.751875524557	585.592800214269	908.685850838689	302.750781040399	642.320488845545	954.267482594144	207.971581113232	581.667674705612	820.856075409938	44.478378322380	544.904224204956	991.292444335886	97.296010700156	588.856533693026	900.827223691187	37.790819108056	623.188900155908	1109.263181374520	42.359043082808	622.790800445476	584.151660919726	72.095253168489	411.999846398328	654.596050685000	52.780939741500	331.681358007287	748.099150416733	101.648924513689	353.807301035146	863.729260891750	37.098227674243	324.672168917447	1059.477817451836	1118.481648282744	198.096026794073	1313.958867529084	1071.693824922570	224.879959835345	732.684936657158	1113.932302391743	751.149607687814	735.107387040328	854.103989903255	781.855821796340	
38	17.254142857143	724.749838059328	1005.869704852465	478.188414186822	945.853643466808	1435.840833076884	344.316604168837	1004.323919023337	1362.790710310622	524.541258691953	881.709572571055	1435.566435548977	674.126636393597	890.895560146062	1495.365957970269	493.147261502448	932.531644182124	940.870039895438	634.083686117803	962.296434339526	960.538237648659	361.504575253733	991.826376916933	746.692665575325	602.665993083855	913.122966983600	631.157328893802	651.799334306100	1002.804764702093	585.610798680151	579.478599528672	1010.846473365810	495.551741221341	585.854047097518	966.662377090791	731.730983852096	379.911576550033	859.798365143663	631.458025218563	308.531170067790	925.226212838855	538.200319700465	370.968715015486	910.143756710118	462.510219990129	371.556990592759	856.450748593806	404.557711329254	362.150001093771	731.497981695994	328.575517947980	310.908334926707	748.033668363956	201.203292681713	371.782403825778	979.898882662488	406.369231356164	587.886480710905	903.895440668056	302.486652961608	643.863298684604	949.223991406919	207.808452590046	582.783734271589	815.125287637482	44.549121520896	545.057179514716	985.641152431840	97.270577568335	589.237561191926	895.080408827857	37.767879739432	623.303273070622	1103.535661701259	41.972821865299	623.040269829433	580.863311168974	79.849732236372	411.710749041045	650.420303945652	57.611617364570	331.500839589557	745.571443018234	103.456430718795	353.120841162101	858.315815980419	36.544294507818	324.587101460865	1054.025294575070	1116.531916011055	203.458246645486	1307.303028428498	1061.344365377292	228.626097424736	738.137148580990	1114.223707082859	759.870074601584	741.775784897597	854.737197046484	792.307524061998	
39	17.273714285714	725.490383273633	1006.926540600142	484.103137486968	945.643853637490	1436.845155915070	348.585506873858	1005.983247165014	1363.240780031637	528.012133395254	885.267090948667	1435.780762461132	679.060625328817	892.444299784139	1496.133299437853	497.909142574689	934.559745230236	941.079410575508	637.617487488845	961.736154524369	961.430129962295	364.924084866884	991.277876630257	745.776204624090	606.321850189652	910.808492863770	631.147039641307	654.928350933721	999.907891387728	584.744174667998	582.584851987963	1006.679286980478	494.931619193534	588.389529891477	969.528828748220	733.384846610473	382.707078308593	864.834075366643	631.599315078419	311.314061623929	932.739418472567	538.868540004253	372.952247009691	918.256897999034	461.932036600011	372.473613120022	862.363607124011	404.727907427760	363.414988752955	735.086074280466	332.691421090646	312.388277930362	748.764035955989	204.470552824807	371.945625087833	975.450676269432	405.991684425871	589.996511227211	898.874008124434	302.199358555001	645.268816092209	944.024795493470	207.641073696358	583.799263969512	809.338910850826	44.569911206865	545.190635117870	979.932934656173	97.254964159080	589.598920386814	889.273944326221	37.734606814837	623.414427102605	1097.738250457188	41.685805111883	623.266057585003	578.252559662828	88.911067483532	411.423368290061	646.688590002959	63.537193232248	331.311999869258	743.526824680092	105.717399243301	352.516962319377	852.854811101982	35.860535261870	324.517971294363	1047.468665452918	1114.374254614120	208.558262902984	1298.975463537142	1049.651597515448	232.157130605123	744.115498384852	1114.129920456059	768.669769255516	749.078062082967	854.981556824989	802.851692926650	
